<svg width="1280" height="720" viewBox="0 0 1280 720" fill="none" xmlns="http://www.w3.org/2000/svg">
<g clip-path="url(#clip0_79_32)">
<rect width="1280" height="720" fill="white"/>
<rect x="280.869" y="-144.755" width="67.8478" height="720" transform="rotate(41.1418 280.869 -144.755)" fill="#14213D"/>
<rect x="369.705" y="-45" width="67.8478" height="720" transform="rotate(41.1418 369.705 -45)" fill="#14213D"/>
<rect x="575.441" y="-71.4512" width="67.8478" height="1001.43" transform="rotate(41.1418 575.441 -71.4512)" fill="#14213D"/>
<rect x="735.588" y="-45.0703" width="67.8478" height="1089.16" transform="rotate(41.1418 735.588 -45.0703)" fill="#14213D"/>
<rect x="918.586" y="-45" width="67.8478" height="1089.16" transform="rotate(41.1418 918.586 -45)" fill="#14213D"/>
<rect x="1133.1" y="-80.2412" width="67.8478" height="1159.86" transform="rotate(41.1418 1133.1 -80.2412)" fill="#14213D"/>
<rect x="1280.1" y="-45" width="67.8478" height="1159.86" transform="rotate(41.1418 1280.1 -45)" fill="#14213D"/>
<rect x="1375.1" y="68" width="67.8478" height="1159.86" transform="rotate(41.1418 1375.1 68)" fill="#14213D"/>
<rect x="1489.1" y="171" width="67.8478" height="1159.86" transform="rotate(41.1418 1489.1 171)" fill="#14213D"/>
</g>
<defs>
<clipPath id="clip0_79_32">
<rect width="1280" height="720" fill="white"/>
</clipPath>
</defs>
</svg>
